<?xml version="1.0" standalone="no"?>
<!DOCTYPE svg PUBLIC "-//W3C//DTD SVG 20010904//EN"
 "http://www.w3.org/TR/2001/REC-SVG-20010904/DTD/svg10.dtd">
<svg version="1.0" xmlns="http://www.w3.org/2000/svg"
 width="700.000000pt" height="700.000000pt" viewBox="0 0 700.000000 700.000000"
 preserveAspectRatio="xMidYMid meet">
<metadata>
Created by potrace 1.14, written by Peter Selinger 2001-2017
</metadata>
<g transform="translate(0.000000,700.000000) scale(0.100000,-0.100000)"
fill="#000000" stroke="none">
<path d="M1161 6109 c-53 -9 -116 -24 -141 -34 -65 -25 -134 -59 -138 -67 -2
-5 -8 -8 -14 -8 -21 0 -107 -68 -183 -145 -133 -136 -226 -333 -241 -512 -6
-68 -10 -3526 -4 -3643 9 -203 102 -411 249 -560 146 -148 317 -233 516 -258
28 -3 1069 -6 2315 -6 2127 0 2270 1 2342 18 217 49 378 148 509 312 98 124
171 298 185 445 13 135 8 2796 -6 2869 -40 218 -149 403 -321 542 -45 36 -169
110 -204 121 -11 3 -39 13 -62 21 -22 8 -52 17 -65 20 -12 3 -47 9 -77 15 -35
7 -342 11 -900 11 -818 0 -847 1 -889 20 -31 14 -139 115 -375 351 -183 182
-353 348 -378 369 -61 48 -161 96 -246 117 -60 14 -163 16 -922 17 -749 1
-867 -1 -950 -15z m1792 -436 c43 -13 88 -54 402 -368 383 -383 419 -412 570
-462 l80 -27 876 -2 c859 -3 878 -3 939 -24 118 -40 209 -118 260 -225 32 -68
43 -121 45 -215 2 -91 0 -94 -44 -70 -78 42 -191 77 -286 88 -27 3 -1074 6
-2325 5 l-2275 0 -96 -26 c-53 -14 -125 -39 -159 -56 -34 -17 -63 -31 -64 -31
-1 0 -1 240 0 533 1 523 1 533 23 596 50 144 162 247 309 286 35 9 258 12 872
13 715 1 831 -1 873 -15z m2882 -1762 c148 -59 244 -168 278 -318 10 -46 13
-257 11 -988 -1 -511 -4 -941 -8 -955 -3 -14 -22 -57 -41 -97 -56 -114 -157
-194 -285 -228 -42 -11 -457 -13 -2273 -13 -1461 -1 -2243 3 -2282 10 -170 28
-309 162 -348 334 -10 47 -13 248 -12 994 l2 935 22 56 c57 147 165 246 309
284 36 9 564 11 2307 10 l2260 -1 60 -23z"/>
</g>
</svg>
